<mxfile host="drawio-plugin" modified="2023-05-19T09:39:47.749Z" agent="5.0 (X11; Linux x86_64) AppleWebKit/537.36 (KHTML, like Gecko) Chrome/104.0.5112.102 Safari/537.36" etag="MQ-wdtVOlcMwVUt4tywV" version="20.5.3" type="embed"><diagram id="9t5u96WNi0rS4HrvDtxI" name="Page-1"><mxGraphModel dx="1045" dy="583" grid="1" gridSize="10" guides="1" tooltips="1" connect="1" arrows="1" fold="1" page="1" pageScale="1" pageWidth="850" pageHeight="1100" math="0" shadow="0"><root><mxCell id="0"/><mxCell id="1" parent="0"/><mxCell id="TRxEg24sL5Zt3rOSAXKO-1" value="Apisix&lt;br&gt;&lt;br&gt;API gateway" style="ellipse;whiteSpace=wrap;html=1;aspect=fixed;fillColor=#dae8fc;strokeColor=#6c8ebf;" parent="1" vertex="1"><mxGeometry x="450" y="320" width="140" height="140" as="geometry"/></mxCell><mxCell id="TRxEg24sL5Zt3rOSAXKO-2" value="" style="shape=actor;whiteSpace=wrap;html=1;fillColor=#d5e8d4;strokeColor=#82b366;" parent="1" vertex="1"><mxGeometry x="50" y="300" width="40" height="60" as="geometry"/></mxCell><mxCell id="TRxEg24sL5Zt3rOSAXKO-4" value="Keycloack&lt;br&gt;&lt;br&gt;OIDC provider" style="ellipse;whiteSpace=wrap;html=1;aspect=fixed;fillColor=#dae8fc;strokeColor=#6c8ebf;" parent="1" vertex="1"><mxGeometry x="260" y="90" width="140" height="140" as="geometry"/></mxCell><mxCell id="TRxEg24sL5Zt3rOSAXKO-20" value="" style="shape=flexArrow;endArrow=classic;html=1;rounded=0;" parent="1" target="TRxEg24sL5Zt3rOSAXKO-4" edge="1"><mxGeometry width="50" height="50" relative="1" as="geometry"><mxPoint x="110" y="330" as="sourcePoint"/><mxPoint x="450" y="260" as="targetPoint"/></mxGeometry></mxCell><mxCell id="TRxEg24sL5Zt3rOSAXKO-21" value="1. logout with keycloack logout endpoint" style="text;html=1;strokeColor=none;fillColor=none;align=center;verticalAlign=middle;whiteSpace=wrap;rounded=0;" parent="1" vertex="1"><mxGeometry x="50" y="180" width="190" height="80" as="geometry"/></mxCell><mxCell id="TRxEg24sL5Zt3rOSAXKO-22" value="Apisix plugin runner" style="ellipse;whiteSpace=wrap;html=1;aspect=fixed;fillColor=#dae8fc;strokeColor=#6c8ebf;" parent="1" vertex="1"><mxGeometry x="475" y="220" width="80" height="80" as="geometry"/></mxCell><mxCell id="TRxEg24sL5Zt3rOSAXKO-23" value="" style="shape=flexArrow;endArrow=classic;html=1;rounded=0;exitX=1;exitY=1;exitDx=0;exitDy=0;entryX=0;entryY=0;entryDx=0;entryDy=0;" parent="1" source="TRxEg24sL5Zt3rOSAXKO-4" target="TRxEg24sL5Zt3rOSAXKO-22" edge="1"><mxGeometry width="50" height="50" relative="1" as="geometry"><mxPoint x="400" y="310" as="sourcePoint"/><mxPoint x="450" y="260" as="targetPoint"/></mxGeometry></mxCell><mxCell id="TRxEg24sL5Zt3rOSAXKO-24" value="2. Use of logout backchannel (HTTP call)" style="text;html=1;strokeColor=none;fillColor=none;align=center;verticalAlign=middle;whiteSpace=wrap;rounded=0;" parent="1" vertex="1"><mxGeometry x="450" y="150" width="130" height="50" as="geometry"/></mxCell><mxCell id="TRxEg24sL5Zt3rOSAXKO-27" value="" style="shape=flexArrow;endArrow=classic;html=1;rounded=0;startArrow=none;entryX=0;entryY=0.75;entryDx=0;entryDy=0;" parent="1" source="TRxEg24sL5Zt3rOSAXKO-29" target="2" edge="1"><mxGeometry width="50" height="50" relative="1" as="geometry"><mxPoint x="120" y="340" as="sourcePoint"/><mxPoint x="290" y="390" as="targetPoint"/></mxGeometry></mxCell><mxCell id="TRxEg24sL5Zt3rOSAXKO-28" value="3.Access tokens used after logout are rejected" style="text;html=1;strokeColor=none;fillColor=none;align=center;verticalAlign=middle;whiteSpace=wrap;rounded=0;" parent="1" vertex="1"><mxGeometry x="130" y="430" width="120" height="30" as="geometry"/></mxCell><mxCell id="TRxEg24sL5Zt3rOSAXKO-29" value="" style="verticalLabelPosition=bottom;verticalAlign=top;html=1;shape=mxgraph.basic.no_symbol;fillColor=#f8cecc;strokeColor=#b85450;" parent="1" vertex="1"><mxGeometry x="160" y="310" width="100" height="100" as="geometry"/></mxCell><mxCell id="TRxEg24sL5Zt3rOSAXKO-30" value="" style="shape=flexArrow;endArrow=none;html=1;rounded=0;" parent="1" target="TRxEg24sL5Zt3rOSAXKO-29" edge="1"><mxGeometry width="50" height="50" relative="1" as="geometry"><mxPoint x="120" y="340" as="sourcePoint"/><mxPoint x="290" y="390" as="targetPoint"/></mxGeometry></mxCell><mxCell id="2" value="" style="rounded=0;whiteSpace=wrap;html=1;gradientColor=none;opacity=30;strokeWidth=5;strokeColor=#000000;perimeterSpacing=0;fillColor=#808080;" parent="1" vertex="1"><mxGeometry x="430" y="200" width="180" height="290" as="geometry"/></mxCell><mxCell id="3" value="Apisix" style="text;html=1;strokeColor=none;fillColor=none;align=center;verticalAlign=middle;whiteSpace=wrap;rounded=0;fontStyle=1" vertex="1" parent="1"><mxGeometry x="536" y="469" width="90" height="20" as="geometry"/></mxCell></root></mxGraphModel></diagram></mxfile>